<svg width="48" height="48" viewBox="0 0 48 48" fill="none" xmlns="http://www.w3.org/2000/svg">
<path d="M42 42L33.314 33.314M33.314 33.314C34.7998 31.8282 35.9783 30.0644 36.7824 28.1231C37.5865 26.1818 38.0004 24.1012 38.0004 22C38.0004 19.8988 37.5865 17.8182 36.7824 15.8769C35.9783 13.9356 34.7998 12.1718 33.314 10.686C31.8282 9.20022 30.0643 8.02164 28.1231 7.21755C26.1818 6.41345 24.1012 5.99959 22 5.99959C19.8988 5.99959 17.8182 6.41345 15.8769 7.21755C13.9356 8.02164 12.1718 9.20022 10.686 10.686C7.68533 13.6867 5.99957 17.7564 5.99957 22C5.99957 26.2436 7.68533 30.3133 10.686 33.314C13.6866 36.3147 17.7564 38.0004 22 38.0004C26.2436 38.0004 30.3133 36.3147 33.314 33.314Z" stroke="black" stroke-width="2" stroke-linecap="round" stroke-linejoin="round"/>
</svg>
