<svg width="36" height="36" viewBox="0 0 36 36" fill="none" xmlns="http://www.w3.org/2000/svg">
<path d="M30.874 35.874H5.12598C3.79989 35.874 2.52812 35.3472 1.59044 34.4095C0.652761 33.4719 0.125977 32.2001 0.125977 30.874V5.12601C0.125977 3.79993 0.652761 2.52816 1.59044 1.59047C2.52812 0.652791 3.79989 0.126007 5.12598 0.126007H30.874C32.2001 0.126007 33.4718 0.652791 34.4095 1.59047C35.3472 2.52816 35.874 3.79993 35.874 5.12601V30.874C35.874 32.2001 35.3472 33.4719 34.4095 34.4095C33.4718 35.3472 32.2001 35.874 30.874 35.874ZM5.12598 2.12601C4.33033 2.12601 3.56727 2.44208 3.00466 3.00469C2.44205 3.5673 2.12598 4.33036 2.12598 5.12601V30.874C2.12598 31.6697 2.44205 32.4327 3.00466 32.9953C3.56727 33.5579 4.33033 33.874 5.12598 33.874H30.874C31.6696 33.874 32.4327 33.5579 32.9953 32.9953C33.5579 32.4327 33.874 31.6697 33.874 30.874V5.12601C33.874 4.33036 33.5579 3.5673 32.9953 3.00469C32.4327 2.44208 31.6696 2.12601 30.874 2.12601H5.12598Z" fill="black"/>
<path d="M18 27.188C16.1827 27.186 14.4069 26.6453 12.8968 25.6342C11.3868 24.6231 10.2105 23.187 9.5165 21.5075C8.82252 19.8279 8.64207 17.9803 8.99796 16.1983C9.35385 14.4162 10.2301 12.7796 11.5159 11.4955C12.8018 10.2113 14.4395 9.33718 16.222 8.98361C18.0046 8.63005 19.8519 8.81291 21.5306 9.50908C23.2092 10.2052 24.6438 11.3835 25.6529 12.8948C26.662 14.4061 27.2004 16.1827 27.2 18C27.1968 20.4379 26.2261 22.7749 24.5012 24.4976C22.7762 26.2204 20.4379 27.188 18 27.188ZM18 10.8C16.5788 10.802 15.1901 11.2251 14.0092 12.0159C12.8284 12.8067 11.9084 13.9297 11.3654 15.2431C10.8225 16.5565 10.6809 18.0014 10.9587 19.3951C11.2364 20.7889 11.921 22.0692 12.9259 23.0741C13.9309 24.079 15.2111 24.7636 16.6049 25.0413C17.9987 25.3191 19.4435 25.1776 20.7569 24.6346C22.0703 24.0916 23.1933 23.1716 23.9841 21.9908C24.7749 20.8099 25.198 19.4212 25.2 18C25.2 16.0904 24.4414 14.2591 23.0912 12.9088C21.7409 11.5586 19.9096 10.8 18 10.8Z" fill="black"/>
<path d="M28.4 9.80999C29.5874 9.80999 30.55 8.84741 30.55 7.65999C30.55 6.47258 29.5874 5.50999 28.4 5.50999C27.2126 5.50999 26.25 6.47258 26.25 7.65999C26.25 8.84741 27.2126 9.80999 28.4 9.80999Z" fill="black"/>
</svg>
