<svg width="40" height="40" viewBox="0 0 40 40" fill="none" xmlns="http://www.w3.org/2000/svg">
<path d="M36.5 0.875H3.5C2.80381 0.875 2.13613 1.15156 1.64384 1.64384C1.15156 2.13613 0.875 2.80381 0.875 3.5V36.5C0.875 37.1962 1.15156 37.8639 1.64384 38.3562C2.13613 38.8484 2.80381 39.125 3.5 39.125H36.5C37.1962 39.125 37.8639 38.8484 38.3562 38.3562C38.8484 37.8639 39.125 37.1962 39.125 36.5V3.5C39.125 2.80381 38.8484 2.13613 38.3562 1.64384C37.8639 1.15156 37.1962 0.875 36.5 0.875ZM36.875 36.5C36.875 36.5995 36.8355 36.6948 36.7652 36.7652C36.6948 36.8355 36.5995 36.875 36.5 36.875H3.5C3.40054 36.875 3.30516 36.8355 3.23483 36.7652C3.16451 36.6948 3.125 36.5995 3.125 36.5V3.5C3.125 3.40054 3.16451 3.30516 3.23483 3.23483C3.30516 3.16451 3.40054 3.125 3.5 3.125H36.5C36.5995 3.125 36.6948 3.16451 36.7652 3.23483C36.8355 3.30516 36.875 3.40054 36.875 3.5V36.5ZM13.625 17V29C13.625 29.2984 13.5065 29.5845 13.2955 29.7955C13.0845 30.0065 12.7984 30.125 12.5 30.125C12.2016 30.125 11.9155 30.0065 11.7045 29.7955C11.4935 29.5845 11.375 29.2984 11.375 29V17C11.375 16.7016 11.4935 16.4155 11.7045 16.2045C11.9155 15.9935 12.2016 15.875 12.5 15.875C12.7984 15.875 13.0845 15.9935 13.2955 16.2045C13.5065 16.4155 13.625 16.7016 13.625 17ZM30.125 22.25V29C30.125 29.2984 30.0065 29.5845 29.7955 29.7955C29.5845 30.0065 29.2984 30.125 29 30.125C28.7016 30.125 28.4155 30.0065 28.2045 29.7955C27.9935 29.5845 27.875 29.2984 27.875 29V22.25C27.875 21.156 27.4404 20.1068 26.6668 19.3332C25.8932 18.5596 24.844 18.125 23.75 18.125C22.656 18.125 21.6068 18.5596 20.8332 19.3332C20.0596 20.1068 19.625 21.156 19.625 22.25V29C19.625 29.2984 19.5065 29.5845 19.2955 29.7955C19.0845 30.0065 18.7984 30.125 18.5 30.125C18.2016 30.125 17.9155 30.0065 17.7045 29.7955C17.4935 29.5845 17.375 29.2984 17.375 29V17C17.375 16.7016 17.4935 16.4155 17.7045 16.2045C17.9155 15.9935 18.2016 15.875 18.5 15.875C18.7984 15.875 19.0845 15.9935 19.2955 16.2045C19.5065 16.4155 19.625 16.7016 19.625 17V17.3956C20.5521 16.6088 21.685 16.1035 22.8899 15.9395C24.0948 15.7754 25.3215 15.9594 26.4252 16.4697C27.529 16.98 28.4638 17.7953 29.1193 18.8195C29.7749 19.8437 30.1238 21.034 30.125 22.25ZM14.375 11.75C14.375 12.1208 14.265 12.4834 14.059 12.7917C13.853 13.1 13.5601 13.3404 13.2175 13.4823C12.8749 13.6242 12.4979 13.6613 12.1342 13.589C11.7705 13.5166 11.4364 13.338 11.1742 13.0758C10.912 12.8136 10.7334 12.4795 10.661 12.1158C10.5887 11.7521 10.6258 11.3751 10.7677 11.0325C10.9096 10.6899 11.15 10.397 11.4583 10.191C11.7666 9.98497 12.1292 9.875 12.5 9.875C12.9973 9.875 13.4742 10.0725 13.8258 10.4242C14.1775 10.7758 14.375 11.2527 14.375 11.75Z" fill="black"/>
</svg>
